<svg width="958" height="779" viewBox="0 0 958 779" fill="none" xmlns="http://www.w3.org/2000/svg">
<path d="M782 193L746 229V157L782 193Z" fill="#0088FF"/>
<path d="M668 193L704 229V157L668 193Z" fill="#B6B6B6"/>
<path d="M91.5 432C91.5 448.881 78.0327 462.5 61.5 462.5C44.9673 462.5 31.5 448.881 31.5 432C31.5 415.119 44.9673 401.5 61.5 401.5C78.0327 401.5 91.5 415.119 91.5 432Z" stroke="#969696" stroke-width="5"/>
<circle cx="61.5" cy="536.5" r="30" stroke="#969696" stroke-width="5"/>
<circle cx="61.5" cy="641.5" r="30" stroke="#969696" stroke-width="5"/>
<circle cx="61.5" cy="746.5" r="30" stroke="#969696" stroke-width="5"/>
<circle cx="176.5" cy="327.5" r="30" stroke="#969696" stroke-width="5"/>
<path d="M206.5 432C206.5 448.881 193.033 462.5 176.5 462.5C159.967 462.5 146.5 448.881 146.5 432C146.5 415.119 159.967 401.5 176.5 401.5C193.033 401.5 206.5 415.119 206.5 432Z" stroke="#969696" stroke-width="5"/>
<circle cx="176.5" cy="536.5" r="30" stroke="#969696" stroke-width="5"/>
<circle cx="176.5" cy="641.5" r="30" stroke="#969696" stroke-width="5"/>
<circle cx="176.5" cy="746.5" r="30" stroke="#969696" stroke-width="5"/>
<path d="M321.5 327.5C321.5 344.033 307.881 357.5 291 357.5C274.119 357.5 260.5 344.033 260.5 327.5C260.5 310.967 274.119 297.5 291 297.5C307.881 297.5 321.5 310.967 321.5 327.5Z" stroke="#969696" stroke-width="5"/>
<circle cx="291" cy="432" r="30.5" stroke="#969696" stroke-width="5"/>
<ellipse cx="291" cy="536.5" rx="33" ry="32.5" fill="#569DFF"/>
<path d="M321.5 641.5C321.5 658.033 307.881 671.5 291 671.5C274.119 671.5 260.5 658.033 260.5 641.5C260.5 624.967 274.119 611.5 291 611.5C307.881 611.5 321.5 624.967 321.5 641.5Z" stroke="#969696" stroke-width="5"/>
<path d="M321.5 746.5C321.5 763.033 307.881 776.5 291 776.5C274.119 776.5 260.5 763.033 260.5 746.5C260.5 729.967 274.119 716.5 291 716.5C307.881 716.5 321.5 729.967 321.5 746.5Z" stroke="#969696" stroke-width="5"/>
<circle cx="405.5" cy="327.5" r="30" stroke="#969696" stroke-width="5"/>
<path d="M435.5 432C435.5 448.881 422.033 462.5 405.5 462.5C388.967 462.5 375.5 448.881 375.5 432C375.5 415.119 388.967 401.5 405.5 401.5C422.033 401.5 435.5 415.119 435.5 432Z" stroke="#969696" stroke-width="5"/>
<circle cx="405.5" cy="536.5" r="30" stroke="#969696" stroke-width="5"/>
<circle cx="405.5" cy="641.5" r="30" stroke="#969696" stroke-width="5"/>
<circle cx="405.5" cy="746.5" r="30" stroke="#969696" stroke-width="5"/>
<path d="M550.5 327.5C550.5 344.033 536.881 357.5 520 357.5C503.119 357.5 489.5 344.033 489.5 327.5C489.5 310.967 503.119 297.5 520 297.5C536.881 297.5 550.5 310.967 550.5 327.5Z" stroke="#969696" stroke-width="5"/>
<circle cx="520" cy="432" r="33" fill="#569DFF"/>
<path d="M550.5 536.5C550.5 553.033 536.881 566.5 520 566.5C503.119 566.5 489.5 553.033 489.5 536.5C489.5 519.967 503.119 506.5 520 506.5C536.881 506.5 550.5 519.967 550.5 536.5Z" stroke="#969696" stroke-width="5"/>
<path d="M550.5 641.5C550.5 658.033 536.881 671.5 520 671.5C503.119 671.5 489.5 658.033 489.5 641.5C489.5 624.967 503.119 611.5 520 611.5C536.881 611.5 550.5 624.967 550.5 641.5Z" stroke="#969696" stroke-width="5"/>
<circle cx="634.5" cy="327.5" r="30" stroke="#969696" stroke-width="5"/>
<path d="M664.5 432C664.5 448.881 651.033 462.5 634.5 462.5C617.967 462.5 604.5 448.881 604.5 432C604.5 415.119 617.967 401.5 634.5 401.5C651.033 401.5 664.5 415.119 664.5 432Z" stroke="#969696" stroke-width="5"/>
<circle cx="634.5" cy="536.5" r="30" stroke="#969696" stroke-width="5"/>
<circle cx="634.5" cy="641.5" r="32.5" fill="#569DFF"/>
<circle cx="749.5" cy="327.5" r="30" stroke="#969696" stroke-width="5"/>
<path d="M779.5 432C779.5 448.881 766.033 462.5 749.5 462.5C732.967 462.5 719.5 448.881 719.5 432C719.5 415.119 732.967 401.5 749.5 401.5C766.033 401.5 779.5 415.119 779.5 432Z" stroke="#969696" stroke-width="5"/>
<circle cx="749.5" cy="536.5" r="30" stroke="#969696" stroke-width="5"/>
<circle cx="749.5" cy="641.5" r="30" stroke="#969696" stroke-width="5"/>
<path d="M39.7559 67.8398C39.7559 65.2943 38.8574 63.3477 37.0605 62C35.2637 60.6224 32.0293 59.1849 27.3574 57.6875C22.6855 56.1602 18.987 54.6628 16.2617 53.1953C8.83464 49.1823 5.12109 43.7767 5.12109 36.9785C5.12109 33.4447 6.10938 30.3001 8.08594 27.5449C10.0924 24.7598 12.9525 22.5885 16.666 21.0312C20.4095 19.474 24.6022 18.6953 29.2441 18.6953C33.916 18.6953 38.0788 19.5488 41.7324 21.2559C45.3861 22.9329 48.2161 25.3138 50.2227 28.3984C52.2591 31.4831 53.2773 34.987 53.2773 38.9102H39.8008C39.8008 35.9154 38.8574 33.5944 36.9707 31.9473C35.084 30.2702 32.4336 29.4316 29.0195 29.4316C25.7253 29.4316 23.1647 30.1354 21.3379 31.543C19.5111 32.9206 18.5977 34.7474 18.5977 37.0234C18.5977 39.1497 19.6608 40.9316 21.7871 42.3691C23.9434 43.8066 27.1029 45.1543 31.2656 46.4121C38.9323 48.7181 44.5176 51.5781 48.0215 54.9922C51.5254 58.4062 53.2773 62.6589 53.2773 67.75C53.2773 73.4102 51.1361 77.8574 46.8535 81.0918C42.571 84.2962 36.806 85.8984 29.5586 85.8984C24.5273 85.8984 19.9453 84.985 15.8125 83.1582C11.6797 81.3014 8.52018 78.7708 6.33398 75.5664C4.17773 72.362 3.09961 68.6484 3.09961 64.4258H16.6211C16.6211 71.6432 20.9336 75.252 29.5586 75.252C32.763 75.252 35.2637 74.6081 37.0605 73.3203C38.8574 72.0026 39.7559 70.1758 39.7559 67.8398ZM83.959 85.8984C76.8314 85.8984 71.0215 83.7122 66.5293 79.3398C62.0671 74.9674 59.8359 69.1426 59.8359 61.8652V60.6074C59.8359 55.7259 60.7793 51.3685 62.666 47.5352C64.5527 43.6719 67.2181 40.707 70.6621 38.6406C74.1361 36.5443 78.0892 35.4961 82.5215 35.4961C89.1699 35.4961 94.3958 37.5924 98.1992 41.7852C102.033 45.9779 103.949 51.9225 103.949 59.6191V64.9199H72.998C73.4173 68.0944 74.6751 70.64 76.7715 72.5566C78.8978 74.4733 81.5781 75.4316 84.8125 75.4316C89.8138 75.4316 93.722 73.6198 96.5371 69.9961L102.916 77.1387C100.969 79.8939 98.334 82.0501 95.0098 83.6074C91.6855 85.1348 88.002 85.8984 83.959 85.8984ZM82.4766 46.0078C79.901 46.0078 77.8047 46.8763 76.1875 48.6133C74.6003 50.3503 73.582 52.8359 73.1328 56.0703H91.1914V55.0371C91.1315 52.1621 90.3529 49.946 88.8555 48.3887C87.3581 46.8014 85.2318 46.0078 82.4766 46.0078ZM125.062 85H112.035V16H125.062V85ZM158.17 85.8984C151.042 85.8984 145.232 83.7122 140.74 79.3398C136.278 74.9674 134.047 69.1426 134.047 61.8652V60.6074C134.047 55.7259 134.99 51.3685 136.877 47.5352C138.764 43.6719 141.429 40.707 144.873 38.6406C148.347 36.5443 152.3 35.4961 156.732 35.4961C163.381 35.4961 168.607 37.5924 172.41 41.7852C176.243 45.9779 178.16 51.9225 178.16 59.6191V64.9199H147.209C147.628 68.0944 148.886 70.64 150.982 72.5566C153.109 74.4733 155.789 75.4316 159.023 75.4316C164.025 75.4316 167.933 73.6198 170.748 69.9961L177.127 77.1387C175.18 79.8939 172.545 82.0501 169.221 83.6074C165.896 85.1348 162.213 85.8984 158.17 85.8984ZM156.688 46.0078C154.112 46.0078 152.016 46.8763 150.398 48.6133C148.811 50.3503 147.793 52.8359 147.344 56.0703H165.402V55.0371C165.342 52.1621 164.564 49.946 163.066 48.3887C161.569 46.8014 159.443 46.0078 156.688 46.0078ZM205.787 75.4316C208.183 75.4316 210.13 74.7728 211.627 73.4551C213.124 72.1374 213.903 70.3854 213.963 68.1992H226.137C226.107 71.4935 225.208 74.5182 223.441 77.2734C221.674 79.9987 219.249 82.125 216.164 83.6523C213.109 85.1497 209.725 85.8984 206.012 85.8984C199.064 85.8984 193.583 83.6973 189.57 79.2949C185.557 74.8626 183.551 68.7533 183.551 60.9668V60.1133C183.551 52.6263 185.542 46.6517 189.525 42.1895C193.508 37.7272 198.974 35.4961 205.922 35.4961C212.001 35.4961 216.868 37.2331 220.521 40.707C224.205 44.151 226.077 48.748 226.137 54.498H213.963C213.903 51.9824 213.124 49.946 211.627 48.3887C210.13 46.8014 208.153 46.0078 205.697 46.0078C202.673 46.0078 200.382 47.1159 198.824 49.332C197.297 51.5182 196.533 55.082 196.533 60.0234V61.3711C196.533 66.3724 197.297 69.9661 198.824 72.1523C200.352 74.3385 202.673 75.4316 205.787 75.4316ZM249.092 24.4453V36.3945H257.402V45.918H249.092V70.1758C249.092 71.9727 249.436 73.2604 250.125 74.0391C250.814 74.8177 252.132 75.207 254.078 75.207C255.516 75.207 256.788 75.1022 257.896 74.8926V84.7305C255.351 85.5091 252.73 85.8984 250.035 85.8984C240.931 85.8984 236.289 81.3014 236.109 72.1074V45.918H229.012V36.3945H236.109V24.4453H249.092ZM288.398 85V19.5938H308.523C314.273 19.5938 319.41 20.8965 323.932 23.502C328.484 26.0775 332.033 29.7611 334.578 34.5527C337.124 39.3145 338.396 44.735 338.396 50.8145V53.8242C338.396 59.9036 337.139 65.3092 334.623 70.041C332.137 74.7728 328.618 78.4414 324.066 81.0469C319.514 83.6523 314.378 84.9701 308.658 85H288.398ZM301.875 30.5098V74.1738H308.389C313.66 74.1738 317.688 72.4518 320.473 69.0078C323.258 65.5638 324.68 60.6374 324.74 54.2285V50.7695C324.74 44.1211 323.363 39.0898 320.607 35.6758C317.852 32.2318 313.824 30.5098 308.523 30.5098H301.875ZM375.547 85C374.948 83.832 374.514 82.3796 374.244 80.6426C371.1 84.1465 367.012 85.8984 361.98 85.8984C357.219 85.8984 353.266 84.5208 350.121 81.7656C347.007 79.0104 345.449 75.5365 345.449 71.3438C345.449 66.1927 347.351 62.2396 351.154 59.4844C354.988 56.7292 360.513 55.3366 367.73 55.3066H373.705V52.5215C373.705 50.2754 373.121 48.4785 371.953 47.1309C370.815 45.7832 369.003 45.1094 366.518 45.1094C364.331 45.1094 362.609 45.6335 361.352 46.6816C360.124 47.7298 359.51 49.1673 359.51 50.9941H346.527C346.527 48.179 347.396 45.5736 349.133 43.1777C350.87 40.7819 353.326 38.9102 356.5 37.5625C359.674 36.1849 363.238 35.4961 367.191 35.4961C373.181 35.4961 377.928 37.0085 381.432 40.0332C384.965 43.028 386.732 47.2507 386.732 52.7012V73.7695C386.762 78.3815 387.406 81.8704 388.664 84.2363V85H375.547ZM364.811 75.9707C366.727 75.9707 368.494 75.5514 370.111 74.7129C371.729 73.8444 372.926 72.6914 373.705 71.2539V62.8984H368.854C362.355 62.8984 358.896 65.1445 358.477 69.6367L358.432 70.4004C358.432 72.0176 359.001 73.3503 360.139 74.3984C361.277 75.4466 362.834 75.9707 364.811 75.9707ZM412.248 24.4453V36.3945H420.559V45.918H412.248V70.1758C412.248 71.9727 412.592 73.2604 413.281 74.0391C413.97 74.8177 415.288 75.207 417.234 75.207C418.672 75.207 419.945 75.1022 421.053 74.8926V84.7305C418.507 85.5091 415.887 85.8984 413.191 85.8984C404.087 85.8984 399.445 81.3014 399.266 72.1074V45.918H392.168V36.3945H399.266V24.4453H412.248ZM450.162 85.8984C443.035 85.8984 437.225 83.7122 432.732 79.3398C428.27 74.9674 426.039 69.1426 426.039 61.8652V60.6074C426.039 55.7259 426.982 51.3685 428.869 47.5352C430.756 43.6719 433.421 40.707 436.865 38.6406C440.339 36.5443 444.292 35.4961 448.725 35.4961C455.373 35.4961 460.599 37.5924 464.402 41.7852C468.236 45.9779 470.152 51.9225 470.152 59.6191V64.9199H439.201C439.62 68.0944 440.878 70.64 442.975 72.5566C445.101 74.4733 447.781 75.4316 451.016 75.4316C456.017 75.4316 459.925 73.6198 462.74 69.9961L469.119 77.1387C467.173 79.8939 464.537 82.0501 461.213 83.6074C457.889 85.1348 454.205 85.8984 450.162 85.8984ZM448.68 46.0078C446.104 46.0078 444.008 46.8763 442.391 48.6133C440.803 50.3503 439.785 52.8359 439.336 56.0703H457.395V55.0371C457.335 52.1621 456.556 49.946 455.059 48.3887C453.561 46.8014 451.435 46.0078 448.68 46.0078ZM498.678 67.3906C498.678 64.3659 499.516 61.5658 501.193 58.9902C502.9 56.4147 506.015 53.5547 510.537 50.4102C508.59 47.8047 507.063 45.3639 505.955 43.0879C504.847 40.7819 504.293 38.3861 504.293 35.9004C504.293 30.8092 505.895 26.6764 509.1 23.502C512.334 20.2975 516.676 18.6953 522.127 18.6953C527.008 18.6953 531.007 20.1478 534.121 23.0527C537.266 25.9577 538.838 29.5814 538.838 33.9238C538.838 39.1348 536.202 43.7318 530.932 47.7148L525.9 51.3535L537.176 64.4707C538.943 60.9967 539.826 57.1634 539.826 52.9707H550.877C550.877 61.4759 548.915 68.3639 544.992 73.6348L554.785 85H540.051L536.682 81.1367C531.86 84.3112 526.32 85.8984 520.061 85.8984C513.592 85.8984 508.411 84.2064 504.518 80.8223C500.624 77.4082 498.678 72.931 498.678 67.3906ZM520.689 75.4766C523.804 75.4766 526.754 74.6081 529.539 72.8711L516.646 57.957L515.703 58.6309C513.038 60.9069 511.705 63.5872 511.705 66.6719C511.705 69.2773 512.529 71.4036 514.176 73.0508C515.853 74.668 518.024 75.4766 520.689 75.4766ZM515.928 35.7207C515.928 37.9668 517.245 40.7969 519.881 44.2109L523.34 41.9199C525.107 40.7819 526.32 39.6738 526.979 38.5957C527.667 37.5176 528.012 36.2298 528.012 34.7324C528.012 33.235 527.458 31.9323 526.35 30.8242C525.242 29.7161 523.819 29.1621 522.082 29.1621C520.225 29.1621 518.728 29.7611 517.59 30.959C516.482 32.1569 515.928 33.7441 515.928 35.7207ZM631.152 30.5098H611.117V85H597.641V30.5098H577.875V19.5938H631.152V30.5098ZM651.727 85H638.699V36.3945H651.727V85ZM637.936 23.8164C637.936 21.8698 638.579 20.2676 639.867 19.0098C641.185 17.752 642.967 17.123 645.213 17.123C647.429 17.123 649.196 17.752 650.514 19.0098C651.831 20.2676 652.49 21.8698 652.49 23.8164C652.49 25.793 651.816 27.4102 650.469 28.668C649.151 29.9258 647.399 30.5547 645.213 30.5547C643.027 30.5547 641.26 29.9258 639.912 28.668C638.594 27.4102 637.936 25.793 637.936 23.8164ZM674.637 36.3945L675.041 41.8301C678.485 37.6074 683.142 35.4961 689.012 35.4961C695.271 35.4961 699.568 37.9668 701.904 42.9082C705.318 37.9668 710.185 35.4961 716.504 35.4961C721.775 35.4961 725.698 37.0384 728.273 40.123C730.849 43.1777 732.137 47.7897 732.137 53.959V85H719.109V54.0039C719.109 51.2487 718.57 49.2422 717.492 47.9844C716.414 46.6966 714.512 46.0527 711.787 46.0527C707.894 46.0527 705.199 47.9095 703.701 51.623L703.746 85H690.764V54.0488C690.764 51.2337 690.21 49.1973 689.102 47.9395C687.993 46.6816 686.107 46.0527 683.441 46.0527C679.758 46.0527 677.092 47.5801 675.445 50.6348V85H662.463V36.3945H674.637ZM764.525 85.8984C757.398 85.8984 751.588 83.7122 747.096 79.3398C742.633 74.9674 740.402 69.1426 740.402 61.8652V60.6074C740.402 55.7259 741.346 51.3685 743.232 47.5352C745.119 43.6719 747.785 40.707 751.229 38.6406C754.702 36.5443 758.656 35.4961 763.088 35.4961C769.736 35.4961 774.962 37.5924 778.766 41.7852C782.599 45.9779 784.516 51.9225 784.516 59.6191V64.9199H753.564C753.984 68.0944 755.242 70.64 757.338 72.5566C759.464 74.4733 762.145 75.4316 765.379 75.4316C770.38 75.4316 774.288 73.6198 777.104 69.9961L783.482 77.1387C781.536 79.8939 778.9 82.0501 775.576 83.6074C772.252 85.1348 768.568 85.8984 764.525 85.8984ZM763.043 46.0078C760.467 46.0078 758.371 46.8763 756.754 48.6133C755.167 50.3503 754.148 52.8359 753.699 56.0703H771.758V55.0371C771.698 52.1621 770.919 49.946 769.422 48.3887C767.924 46.8014 765.798 46.0078 763.043 46.0078Z" fill="#569DFF"/>
</svg>
