<svg width="617" height="571" viewBox="0 0 617 571" fill="none" xmlns="http://www.w3.org/2000/svg">
<path fill-rule="evenodd" clip-rule="evenodd" d="M286.119 8.0144C346.576 -2.78223 414.472 -7.84844 464.811 27.3319C515.405 62.6906 521.041 132.301 545.222 189.093C572.451 253.043 623.894 311.213 615.033 380.152C605.531 454.079 566.113 535.541 497.079 563.642C428.493 591.561 358.389 530.175 286.119 514.04C234.332 502.477 181.084 507.146 134.046 482.59C80.5855 454.681 14.6639 424.575 1.85869 365.642C-10.9566 306.664 45.7046 257.759 73.5595 204.216C95.9203 161.234 112.868 116.687 148.47 83.8245C187.927 47.4048 233.26 17.4541 286.119 8.0144Z" fill="#569DFF"/>
</svg>
