<svg width="611" height="569" viewBox="0 0 611 569" fill="none" xmlns="http://www.w3.org/2000/svg">
<path fill-rule="evenodd" clip-rule="evenodd" d="M317.189 16.5892C385.65 16.0616 462.158 -21.7181 517.543 18.527C572.929 58.7721 566.411 141.654 581.275 208.484C594.507 267.978 626.742 331.541 599.262 385.942C572.254 439.407 498.466 442.203 447.4 473.511C402.044 501.319 369.186 547.622 317.189 558.88C257.151 571.88 186.788 578.219 138.362 540.425C90.1691 502.812 100.258 428.934 77.8243 372.065C53.199 309.642 -7.14476 258.101 0.697687 191.457C8.96529 121.199 57.146 55.8096 119.066 21.5977C178.339 -11.1521 249.472 17.1111 317.189 16.5892Z" fill="#569DFF"/>
</svg>
