<svg width="174" height="158" viewBox="0 0 174 158" fill="none" xmlns="http://www.w3.org/2000/svg">
<circle cx="6.57333" cy="6.57333" r="6.57333" fill="#C4C4C4"/>
<circle cx="6.57333" cy="27.4533" r="6.57333" fill="#C4C4C4"/>
<circle cx="6.57333" cy="48.3333" r="6.57333" fill="#C4C4C4"/>
<circle cx="6.57333" cy="69.2133" r="6.57333" fill="#C4C4C4"/>
<circle cx="26.6798" cy="6.57333" r="6.57333" fill="#C4C4C4"/>
<circle cx="26.6798" cy="27.4533" r="6.57333" fill="#C4C4C4"/>
<circle cx="26.6798" cy="48.3333" r="6.57333" fill="#C4C4C4"/>
<circle cx="26.6798" cy="69.2133" r="6.57333" fill="#C4C4C4"/>
<circle cx="46.7867" cy="6.57333" r="6.57333" fill="#C4C4C4"/>
<circle cx="46.7867" cy="27.4533" r="6.57333" fill="#C4C4C4"/>
<circle cx="46.7867" cy="48.3333" r="6.57333" fill="#C4C4C4"/>
<circle cx="46.7867" cy="69.2133" r="6.57333" fill="#C4C4C4"/>
<circle cx="66.8932" cy="6.57333" r="6.57333" fill="#C4C4C4"/>
<circle cx="66.8932" cy="27.4533" r="6.57333" fill="#C4C4C4"/>
<circle cx="66.8932" cy="48.3333" r="6.57333" fill="#C4C4C4"/>
<circle cx="66.8932" cy="69.2133" r="6.57333" fill="#C4C4C4"/>
<circle cx="87.0001" cy="6.57333" r="6.57333" fill="#C4C4C4"/>
<circle cx="87.0001" cy="27.4533" r="6.57333" fill="#C4C4C4"/>
<circle cx="87.0001" cy="48.3333" r="6.57333" fill="#C4C4C4"/>
<circle cx="87.0001" cy="69.2133" r="6.57333" fill="#C4C4C4"/>
<circle cx="107.107" cy="6.57333" r="6.57333" fill="#C4C4C4"/>
<circle cx="107.107" cy="27.4533" r="6.57333" fill="#C4C4C4"/>
<circle cx="107.107" cy="48.3333" r="6.57333" fill="#C4C4C4"/>
<circle cx="107.107" cy="69.2133" r="6.57333" fill="#C4C4C4"/>
<circle cx="127.213" cy="6.57333" r="6.57333" fill="#C4C4C4"/>
<circle cx="127.213" cy="27.4533" r="6.57333" fill="#C4C4C4"/>
<circle cx="127.213" cy="48.3333" r="6.57333" fill="#C4C4C4"/>
<circle cx="127.213" cy="69.2133" r="6.57333" fill="#C4C4C4"/>
<circle cx="147.32" cy="6.57333" r="6.57333" fill="#C4C4C4"/>
<circle cx="147.32" cy="27.4533" r="6.57333" fill="#C4C4C4"/>
<circle cx="147.32" cy="48.3333" r="6.57333" fill="#C4C4C4"/>
<circle cx="147.32" cy="69.2133" r="6.57333" fill="#C4C4C4"/>
<circle cx="167.427" cy="6.57333" r="6.57333" fill="#C4C4C4"/>
<circle cx="167.427" cy="27.4533" r="6.57333" fill="#C4C4C4"/>
<circle cx="167.427" cy="48.3333" r="6.57333" fill="#C4C4C4"/>
<circle cx="167.427" cy="69.2133" r="6.57333" fill="#C4C4C4"/>
<circle cx="6.57333" cy="88.5733" r="6.57333" fill="#C4C4C4"/>
<circle cx="6.57333" cy="109.453" r="6.57333" fill="#C4C4C4"/>
<circle cx="6.57333" cy="130.333" r="6.57333" fill="#C4C4C4"/>
<circle cx="6.57333" cy="151.213" r="6.57333" fill="#C4C4C4"/>
<circle cx="26.6798" cy="88.5733" r="6.57333" fill="#C4C4C4"/>
<circle cx="26.6798" cy="109.453" r="6.57333" fill="#C4C4C4"/>
<circle cx="26.6798" cy="130.333" r="6.57333" fill="#C4C4C4"/>
<circle cx="26.6798" cy="151.213" r="6.57333" fill="#C4C4C4"/>
<circle cx="46.7867" cy="88.5733" r="6.57333" fill="#C4C4C4"/>
<circle cx="46.7867" cy="109.453" r="6.57333" fill="#C4C4C4"/>
<circle cx="46.7867" cy="130.333" r="6.57333" fill="#C4C4C4"/>
<circle cx="46.7867" cy="151.213" r="6.57333" fill="#C4C4C4"/>
<circle cx="66.8932" cy="88.5733" r="6.57333" fill="#C4C4C4"/>
<circle cx="66.8932" cy="109.453" r="6.57333" fill="#C4C4C4"/>
<circle cx="66.8932" cy="130.333" r="6.57333" fill="#C4C4C4"/>
<circle cx="66.8932" cy="151.213" r="6.57333" fill="#C4C4C4"/>
<circle cx="87.0001" cy="88.5733" r="6.57333" fill="#C4C4C4"/>
<circle cx="87.0001" cy="109.453" r="6.57333" fill="#C4C4C4"/>
<circle cx="87.0001" cy="130.333" r="6.57333" fill="#C4C4C4"/>
<circle cx="87.0001" cy="151.213" r="6.57333" fill="#C4C4C4"/>
<circle cx="107.107" cy="88.5733" r="6.57333" fill="#C4C4C4"/>
<circle cx="107.107" cy="109.453" r="6.57333" fill="#C4C4C4"/>
<circle cx="107.107" cy="130.333" r="6.57333" fill="#C4C4C4"/>
<circle cx="107.107" cy="151.213" r="6.57333" fill="#C4C4C4"/>
<circle cx="127.213" cy="88.5733" r="6.57333" fill="#C4C4C4"/>
<circle cx="127.213" cy="109.453" r="6.57333" fill="#C4C4C4"/>
<circle cx="127.213" cy="130.333" r="6.57333" fill="#C4C4C4"/>
<circle cx="127.213" cy="151.213" r="6.57333" fill="#C4C4C4"/>
<circle cx="147.32" cy="88.5733" r="6.57333" fill="#C4C4C4"/>
<circle cx="147.32" cy="109.453" r="6.57333" fill="#C4C4C4"/>
<circle cx="147.32" cy="130.333" r="6.57333" fill="#C4C4C4"/>
<circle cx="147.32" cy="151.213" r="6.57333" fill="#C4C4C4"/>
<circle cx="167.427" cy="88.5733" r="6.57333" fill="#C4C4C4"/>
<circle cx="167.427" cy="109.453" r="6.57333" fill="#C4C4C4"/>
<circle cx="167.427" cy="130.333" r="6.57333" fill="#C4C4C4"/>
<circle cx="167.427" cy="151.213" r="6.57333" fill="#C4C4C4"/>
</svg>
